<svg xmlns="http://www.w3.org/2000/svg" viewBox="0 0 128 128" role="img" aria-label="March Madness Bracket Atlas icon">
  <defs>
    <linearGradient id="g" x1="0" y1="0" x2="1" y2="1">
      <stop offset="0%" stop-color="#7c5cff"/>
      <stop offset="55%" stop-color="#04cfff"/>
      <stop offset="100%" stop-color="#ffc857"/>
    </linearGradient>
  </defs>
  <rect width="128" height="128" rx="28" fill="#050816"/>
  <rect x="16" y="16" width="96" height="96" rx="22" fill="#0c1327" stroke="rgba(255,255,255,.12)"/>
  <g fill="none" stroke="url(#g)" stroke-width="6" stroke-linecap="round" stroke-linejoin="round">
    <path d="M28 34h18M28 50h18M28 78h18M28 94h18"/>
    <path d="M82 34h18M82 50h18M82 78h18M82 94h18"/>
    <path d="M46 34h14v16h10M46 50h14M46 78h14M46 94h14v-16h10"/>
    <path d="M68 50h14v28H68"/>
  </g>
  <circle cx="64" cy="64" r="7" fill="#ffc857"/>
</svg>